<svg width="26" height="26" fill="none" xmlns="http://www.w3.org/2000/svg"><path d="M24.08 0H1.92A1.92 1.92 0 000 1.92v22.16A1.92 1.92 0 001.92 26h22.16A1.92 1.92 0 0026 24.08V1.92A1.92 1.92 0 0024.08 0zM7.75 22.149H3.84V9.732h3.91v12.417zM5.791 8.01A2.244 2.244 0 118.05 5.77a2.212 2.212 0 01-2.258 2.24zm16.367 14.15H18.25v-6.784c0-2-.85-2.618-1.949-2.618-1.159 0-2.296.874-2.296 2.669v6.733h-3.91V9.74h3.76v1.72h.05c.378-.763 1.7-2.069 3.716-2.069 2.181 0 4.538 1.295 4.538 5.087l-.002 7.68z" fill="#fff"/></svg>