<svg width="75" height="24" fill="none" xmlns="http://www.w3.org/2000/svg"><path d="M49.39 1.19h-2.623v21.274h2.624V1.19zm6.688 0h-2.623v21.274h2.623V1.19zm17.653 6.925l-1.311 2.857c-1.204-2.056-3.312-3.224-5.784-3.224-4.43 0-7.44 3.375-7.44 7.53 0 4.156 3.01 7.532 7.44 7.532 2.343 0 4.365-1.06 5.59-2.922v2.575H75V8.115h-1.269zm-6.687 13.158c-3.118 0-4.838-2.553-4.838-5.994 0-3.528 1.72-5.995 4.838-5.995 2.86 0 4.989 2.51 4.989 5.995 0 3.484-2.129 5.994-4.989 5.994zM23.115 9.262a7.124 7.124 0 00-1.85 2.9l-1.354-4.068h-1.269v14.348h2.774v-5.454c0-1.97.215-3.614 1.01-4.782.689-.996 1.872-1.602 3.355-1.602.473 0 .946.043 1.42.13V7.986a5.473 5.473 0 00-.84-.065 4.824 4.824 0 00-3.246 1.341zm12.622-1.514c-4.451 0-7.612 3.246-7.612 7.53 0 4.286 3.096 7.532 7.59 7.532a8.224 8.224 0 004.73-1.429 6.69 6.69 0 002.388-3.57h-2.86c-.43 1.817-1.548 3.484-4.064 3.484-3.548 0-4.688-2.792-4.752-5.778v-.044h11.998v-.346c.022-4.285-3.01-7.38-7.418-7.38zm.021 1.514c3.14 0 4.129 2.576 4.215 4.653h-8.73c.258-2.532 1.548-4.653 4.515-4.653zM9.461 12.01c2.817-.583 4.989-2.098 4.989-4.739 0-3.246-2.43-4.804-6.172-4.804H0v20.018h9.16c3.376 0 6.042-1.731 6.042-5.389 0-3.03-2.537-4.869-5.741-5.085zM7.332 3.918c2.688 0 4.086 1.363 4.086 3.506 0 2.142-1.527 3.809-4.322 3.809h-4V3.917h4.236zm.366 17.075H3.096v-8.094h4.129c2.946 0 4.773 1.45 4.773 4.069 0 2.294-1.526 4.025-4.3 4.025z" fill="#214E41"/></svg>