<svg width="26" height="22" fill="none" xmlns="http://www.w3.org/2000/svg"><path d="M8.176 21.563c9.812 0 15.178-8.129 15.178-15.178 0-.23 0-.46-.015-.69A10.853 10.853 0 0026 2.936a10.66 10.66 0 01-3.064.839 5.352 5.352 0 002.345-2.95 10.687 10.687 0 01-3.387 1.294 5.34 5.34 0 00-9.09 4.865A15.145 15.145 0 011.81 1.41a5.338 5.338 0 001.65 7.12 5.287 5.287 0 01-2.421-.667v.068a5.336 5.336 0 004.28 5.229 5.325 5.325 0 01-2.409.091 5.341 5.341 0 004.984 3.705A10.7 10.7 0 010 19.166a15.103 15.103 0 008.176 2.393" fill="#FAFAFA"/></svg>