<svg width="26" height="26" fill="none" xmlns="http://www.w3.org/2000/svg"><g clip-path="url(#clip0_1_277)"><path d="M25.482 6.7a3.268 3.268 0 00-2.299-2.313c-2.033-.546-10.158-.546-10.158-.546s-8.125 0-10.157.546A3.268 3.268 0 00.569 6.701C.025 8.742.025 13 .025 13s0 4.257.544 6.299a3.268 3.268 0 002.299 2.313c2.032.547 10.157.547 10.157.547s8.125 0 10.158-.547a3.267 3.267 0 002.299-2.313c.543-2.042.543-6.3.543-6.3s0-4.257-.543-6.298z" fill="#FAFAFA"/><path d="M10.367 16.866V9.134L17.163 13l-6.796 3.866z" fill="#214E41"/></g><defs><clipPath id="clip0_1_277"><path fill="#fff" d="M0 0h26v26H0z"/></clipPath></defs></svg>